<svg xmlns="http://www.w3.org/2000/svg" viewBox="0 0 696.86 349.66"><defs><style>.cls-1{fill:#231f20;}</style></defs><title>logo-black</title><g id="Layer_2" data-name="Layer 2"><g id="Layer_1-2" data-name="Layer 1"><path class="cls-1" d="M8.66,240.39c7.33-8.33,30-5.33,40,12.32,2.66,4.34,6.66,13,5.33,15.33-1.67,3-8.33-2.33-10.33,1.33-2.33,4.33-3.66,15.33-3,23.65,1,16,9.66,29.32,22.32,29.32,32.32,0,59.64-46,56-194.89-21.65,3.67-42.31,7.66-56.3,11-9.33,2.33-23-21.66-23-29,0-2.66,3-4,5.67-4.66C87,93.47,663.73,30.65,671.06,37c1.33,1.33,12.66,15.33,16,19.32l-4.33,7c-8,1.33-490.16,51.83-501.49,53.82l-29,4.67c5,2.33,9.32,5,11.32,7,4,168.58-25,220.88-78.95,220.88C38,349.66,0,317,0,280.37,0,263.37,3,252.38,8.66,240.39Z"/><path class="cls-1" d="M243,236.56c-3.58,8.05-12.54,17.29-24.71,18.52-21.53,2.16-38.38-12.62-41.13-40-3.88-38.7,10.89-79.71,41.76-82.81,20-2,32.48,6.4,33.35,15.1a12.39,12.39,0,0,1-.15,2.87c2.48.63,13.37-.25,12.33,4.69-4.32,22.61-6.88,45.27-5.43,61.81.5,9.39,2.72,16.2,9,15.56,10-1,11.5-14.54,11.65-28.39,0,0,13.08-3.07,14.26,8.67,1.27,12.6-7,35.61-27.83,37.7-14.79,1.49-20.64-8.68-21.82-13.84Zm-28.68.91c11.09-1.12,18-50.77,17.66-58.21,0,0-6.22-.69-9.16-3.69A38.15,38.15,0,0,0,228,154.63c-.18-1.74-.46-6.76-4.16-6.39-13.69,1.37-18.83,50.86-17.56,72.25C207.08,233.14,209.32,238,214.32,237.47Z"/><path class="cls-1" d="M297.83,33c8-1.67,22.72,3.21,23.13,7.34-2.08,9.88-12.82,92.6-14.08,106.34,5.5-13.07,12.39-21,21.08-21.88,16.52-1.66,33.77,17,35.58,35.08,1.77,17.61-3.16,82.22-37.73,85.69-27.61,2.77-44.25-12-47.15-40.94C275,167.92,292.87,34,297.83,33Zm7.85,156.4a130.4,130.4,0,0,0-.49,23.55c.59,8.06,4.72,14.23,10.59,13.64,22.39-2.24,21-71.05,20.74-73.44-.4-6.11-.59-12.46-6-11.91-12,1.2-19.42,36.2-20.18,48.35,0,.22-.83.53-1,.55Z"/><path class="cls-1" d="M372.91,213.86c-1-33.93,12.48-173.3,18.32-211.44.47-1.8,2.63-2.24,3.93-2.37,6.52-.65,23.55,4.89,23.07,8.89-5.18,46.85-17.9,165.28-16.84,213,.15,5.92.09,11.85.46,17.75-2.67,4-25.52-2.71-27.2-6.28C372.61,230.58,373.17,220.86,372.91,213.86Z"/><path class="cls-1" d="M477.56,213c-3.58,8-12.53,17.29-24.71,18.51-21.52,2.16-38.38-12.62-41.13-40-3.88-38.69,10.89-79.7,41.76-82.8,20-2,32.48,6.4,33.36,15.1a12.13,12.13,0,0,1-.16,2.87c2.48.62,13.38-.25,12.33,4.69-4.31,22.61-6.87,45.26-5.43,61.81.5,9.39,2.72,16.19,9,15.56,10-1,11.49-14.55,11.64-28.4,0,0,13.09-3.07,14.27,8.67,1.26,12.61-7,35.62-27.84,37.71C485.9,228.22,480,218,478.87,212.89Zm-28.67.9c11.09-1.11,18-50.77,17.65-58.2,0,0-6.22-.7-9.15-3.7a38.17,38.17,0,0,0,5.14-20.93c-.17-1.74-.46-6.77-4.15-6.39-13.7,1.37-18.83,50.85-17.56,72.25C441.65,209.6,443.89,214.43,448.89,213.92Z"/><path class="cls-1" d="M558.85,150c-7.32,19-15.29,53.35-13.59,72.51a22.67,22.67,0,0,1-12,4.72c-12.61,1.26-17.26-10.13-18.92-26.65-4.65-46.31-.78-93,13.36-94.45,5-.5,14.39,1.19,14,6.28-1.95,20-5.51,39.2-4.13,59.49l.87-.09c6.21-23.46,12.48-48.47,22.45-71.65.48-1.8,2.74-3.34,6.44-3.72,7.61-.76,24.24,3.06,24.07,10.11-.15,22.63-10.09,54.81-7.52,80.46,1,10.44,4.16,15.17,10,14.59,7-.7,11-15.38,12.19-20.77,0,0,10.39-1.48,11.33,7.86s-9.12,29.47-28.69,31.43c-21.08,2.12-28.37-13.62-29.81-30.16-.44-8.74,1.2-29.55,2.55-40.23Z"/><path class="cls-1" d="M641.48,96c14.14-1.42,31.7,7.35,33.17,21.92,2,20.22-5.8,32-15.58,33-7.39.74-11.91-2.76-13.18-8.78a3.47,3.47,0,0,1-.35-1.29s6.54-11.41,5.65-24.72c-.09-3.06-1.37-4.91-3.77-4.67-10.43,1-19,31.55-15.78,63.73,2,20,9.58,25.39,19.14,24.43,17.18-1.73,26.82-26,27.1-40.71a21.17,21.17,0,0,1,6.83-2c5.43-.55,11,2.84,12.07,13.06,1.09,10.87-7.92,43.61-43.14,47.15-26.09,2.62-48.64-14.22-51.63-44C599.15,144.6,609.53,99.2,641.48,96Z"/><path class="cls-1" d="M172.91,297l2.14-.66,2-.58,4-1.16,7.95-2.12c5.31-1.37,10.6-2.64,15.9-3.93L220.84,285l15.93-3.26c2.66-.53,5.31-1.11,8-1.6l8-1.46,16-2.92c10.67-1.72,21.33-3.51,32-5.16,42.71-6.53,85.59-11.15,128.51-14.88l16.09-1.34,8-.67c2.68-.22,5.36-.46,8.05-.61L493.61,251l16.11-1,16.12-.72,32.24-1.46c5.37-.28,10.75-.39,16.12-.53l16.12-.43,32.24-.84,64.48-.51,0,.84-64.36,3.19-32.14,2.19-16.06,1.09c-5.36.37-10.71.7-16.06,1.21l-32.07,2.78-16,1.4-16,1.68-32,3.39c-2.67.27-5.33.62-8,1l-8,1-15.95,2c-42.51,5.48-84.89,11.85-126.85,20.07-10.49,2.07-20.94,4.27-31.4,6.41l-15.6,3.54-7.8,1.76c-2.6.59-5.18,1.27-7.76,1.89l-15.5,3.86-15.38,4.13c-5.08,1.46-10.18,2.91-15.22,4.44l-7.52,2.34-3.69,1.23-1.83.61-1.69.6Z"/></g></g></svg>